<mxfile host="app.diagrams.net" modified="2023-03-27T16:18:47.095Z" agent="Mozilla/5.0 (Macintosh; Intel Mac OS X 10_15_7) AppleWebKit/537.36 (KHTML, like Gecko) Chrome/111.0.0.0 Safari/537.36" etag="A7_wHmZNfpLLsOjGvHzV" version="21.1.1" type="device">
  <diagram id="R2lEEEUBdFMjLlhIrx00" name="Page-1">
    <mxGraphModel dx="954" dy="627" grid="1" gridSize="10" guides="1" tooltips="1" connect="1" arrows="1" fold="1" page="1" pageScale="1" pageWidth="850" pageHeight="1100" math="0" shadow="0" extFonts="Permanent Marker^https://fonts.googleapis.com/css?family=Permanent+Marker">
      <root>
        <mxCell id="0" />
        <mxCell id="1" parent="0" />
        <mxCell id="UCf_hg2KH5S3i3pvSqn3-17" value="Student" style="rounded=1;arcSize=10;whiteSpace=wrap;html=1;align=center;fillColor=#d5e8d4;strokeColor=#82b366;" parent="1" vertex="1">
          <mxGeometry x="150" y="118.43" width="100" height="40" as="geometry" />
        </mxCell>
        <mxCell id="UCf_hg2KH5S3i3pvSqn3-20" value="EmailID" style="ellipse;whiteSpace=wrap;html=1;align=center;fillColor=#fff2cc;strokeColor=#d6b656;" parent="1" vertex="1">
          <mxGeometry x="40" y="28.43" width="50" height="30" as="geometry" />
        </mxCell>
        <mxCell id="UCf_hg2KH5S3i3pvSqn3-21" value="" style="endArrow=none;html=1;rounded=0;exitX=1;exitY=1;exitDx=0;exitDy=0;entryX=0.25;entryY=0;entryDx=0;entryDy=0;" parent="1" source="UCf_hg2KH5S3i3pvSqn3-20" target="UCf_hg2KH5S3i3pvSqn3-17" edge="1">
          <mxGeometry relative="1" as="geometry">
            <mxPoint x="200" y="138.43" as="sourcePoint" />
            <mxPoint x="360" y="138.43" as="targetPoint" />
          </mxGeometry>
        </mxCell>
        <mxCell id="UCf_hg2KH5S3i3pvSqn3-22" value="StudentID" style="ellipse;whiteSpace=wrap;html=1;align=center;fontStyle=4;fillColor=#f8cecc;strokeColor=#b85450;" parent="1" vertex="1">
          <mxGeometry x="10" y="68.43" width="70" height="30" as="geometry" />
        </mxCell>
        <mxCell id="UCf_hg2KH5S3i3pvSqn3-23" value="" style="endArrow=none;html=1;rounded=0;entryX=0;entryY=0.25;entryDx=0;entryDy=0;exitX=1;exitY=1;exitDx=0;exitDy=0;" parent="1" source="UCf_hg2KH5S3i3pvSqn3-22" target="UCf_hg2KH5S3i3pvSqn3-17" edge="1">
          <mxGeometry relative="1" as="geometry">
            <mxPoint x="80" y="88.43" as="sourcePoint" />
            <mxPoint x="450" y="298.43" as="targetPoint" />
          </mxGeometry>
        </mxCell>
        <mxCell id="UCf_hg2KH5S3i3pvSqn3-24" value="PhoneNo" style="ellipse;whiteSpace=wrap;html=1;align=center;fillColor=#fff2cc;strokeColor=#d6b656;" parent="1" vertex="1">
          <mxGeometry x="100" y="18.43" width="60" height="30" as="geometry" />
        </mxCell>
        <mxCell id="UCf_hg2KH5S3i3pvSqn3-25" value="" style="endArrow=none;html=1;rounded=0;exitX=0.5;exitY=1;exitDx=0;exitDy=0;entryX=0.5;entryY=0;entryDx=0;entryDy=0;" parent="1" source="UCf_hg2KH5S3i3pvSqn3-24" target="UCf_hg2KH5S3i3pvSqn3-17" edge="1">
          <mxGeometry relative="1" as="geometry">
            <mxPoint x="290" y="298.43" as="sourcePoint" />
            <mxPoint x="450" y="298.43" as="targetPoint" />
          </mxGeometry>
        </mxCell>
        <mxCell id="UCf_hg2KH5S3i3pvSqn3-26" value="Age" style="ellipse;whiteSpace=wrap;html=1;align=center;dashed=1;fillColor=#fff2cc;strokeColor=#d6b656;" parent="1" vertex="1">
          <mxGeometry x="20" y="158.43" width="40" height="30" as="geometry" />
        </mxCell>
        <mxCell id="UCf_hg2KH5S3i3pvSqn3-27" value="" style="endArrow=none;html=1;rounded=0;exitX=1;exitY=0.5;exitDx=0;exitDy=0;entryX=0;entryY=0.75;entryDx=0;entryDy=0;" parent="1" source="UCf_hg2KH5S3i3pvSqn3-26" target="UCf_hg2KH5S3i3pvSqn3-17" edge="1">
          <mxGeometry relative="1" as="geometry">
            <mxPoint x="290" y="298.43" as="sourcePoint" />
            <mxPoint x="450" y="298.43" as="targetPoint" />
          </mxGeometry>
        </mxCell>
        <mxCell id="UCf_hg2KH5S3i3pvSqn3-30" value="DOB" style="ellipse;whiteSpace=wrap;html=1;align=center;fillColor=#fff2cc;strokeColor=#d6b656;" parent="1" vertex="1">
          <mxGeometry x="20" y="108.43" width="40" height="30" as="geometry" />
        </mxCell>
        <mxCell id="UCf_hg2KH5S3i3pvSqn3-31" value="" style="endArrow=none;html=1;rounded=0;exitX=1;exitY=0.5;exitDx=0;exitDy=0;entryX=0;entryY=0.5;entryDx=0;entryDy=0;" parent="1" source="UCf_hg2KH5S3i3pvSqn3-30" target="UCf_hg2KH5S3i3pvSqn3-17" edge="1">
          <mxGeometry relative="1" as="geometry">
            <mxPoint x="290" y="328.43" as="sourcePoint" />
            <mxPoint x="450" y="328.43" as="targetPoint" />
          </mxGeometry>
        </mxCell>
        <mxCell id="UCf_hg2KH5S3i3pvSqn3-32" value="Name" style="ellipse;whiteSpace=wrap;html=1;align=center;fillColor=#fff2cc;strokeColor=#d6b656;" parent="1" vertex="1">
          <mxGeometry x="190" y="63.43" width="60" height="30" as="geometry" />
        </mxCell>
        <mxCell id="UCf_hg2KH5S3i3pvSqn3-33" value="" style="endArrow=none;html=1;rounded=0;exitX=0.5;exitY=1;exitDx=0;exitDy=0;" parent="1" source="UCf_hg2KH5S3i3pvSqn3-32" edge="1">
          <mxGeometry relative="1" as="geometry">
            <mxPoint x="225" y="88.43" as="sourcePoint" />
            <mxPoint x="210" y="118.43" as="targetPoint" />
          </mxGeometry>
        </mxCell>
        <mxCell id="UCf_hg2KH5S3i3pvSqn3-34" value="FName" style="ellipse;whiteSpace=wrap;html=1;align=center;fillColor=#fff2cc;strokeColor=#d6b656;" parent="1" vertex="1">
          <mxGeometry x="170" y="18.43" width="60" height="20" as="geometry" />
        </mxCell>
        <mxCell id="UCf_hg2KH5S3i3pvSqn3-35" value="" style="endArrow=none;html=1;rounded=0;exitX=0.5;exitY=1;exitDx=0;exitDy=0;entryX=0.5;entryY=0;entryDx=0;entryDy=0;" parent="1" source="UCf_hg2KH5S3i3pvSqn3-34" target="UCf_hg2KH5S3i3pvSqn3-32" edge="1">
          <mxGeometry relative="1" as="geometry">
            <mxPoint x="290" y="238.43" as="sourcePoint" />
            <mxPoint x="450" y="238.43" as="targetPoint" />
          </mxGeometry>
        </mxCell>
        <mxCell id="UCf_hg2KH5S3i3pvSqn3-36" value="LName" style="ellipse;whiteSpace=wrap;html=1;align=center;fillColor=#fff2cc;strokeColor=#d6b656;" parent="1" vertex="1">
          <mxGeometry x="240" y="17.18" width="60" height="22.5" as="geometry" />
        </mxCell>
        <mxCell id="UCf_hg2KH5S3i3pvSqn3-37" value="" style="endArrow=none;html=1;rounded=0;exitX=0.5;exitY=1;exitDx=0;exitDy=0;entryX=0.667;entryY=0;entryDx=0;entryDy=0;entryPerimeter=0;" parent="1" source="UCf_hg2KH5S3i3pvSqn3-36" target="UCf_hg2KH5S3i3pvSqn3-32" edge="1">
          <mxGeometry relative="1" as="geometry">
            <mxPoint x="290" y="238.43" as="sourcePoint" />
            <mxPoint x="450" y="238.43" as="targetPoint" />
          </mxGeometry>
        </mxCell>
        <mxCell id="UCf_hg2KH5S3i3pvSqn3-38" value="isSuper" style="ellipse;whiteSpace=wrap;html=1;align=center;fillColor=#fff2cc;strokeColor=#d6b656;" parent="1" vertex="1">
          <mxGeometry x="260" y="62.81000000000001" width="60" height="25" as="geometry" />
        </mxCell>
        <mxCell id="UCf_hg2KH5S3i3pvSqn3-39" value="" style="endArrow=none;html=1;rounded=0;entryX=0.75;entryY=0;entryDx=0;entryDy=0;exitX=0.283;exitY=0.968;exitDx=0;exitDy=0;exitPerimeter=0;" parent="1" source="UCf_hg2KH5S3i3pvSqn3-38" target="UCf_hg2KH5S3i3pvSqn3-17" edge="1">
          <mxGeometry relative="1" as="geometry">
            <mxPoint x="290" y="90" as="sourcePoint" />
            <mxPoint x="450" y="238.43" as="targetPoint" />
          </mxGeometry>
        </mxCell>
        <mxCell id="UCf_hg2KH5S3i3pvSqn3-60" value="Course" style="rounded=1;arcSize=10;whiteSpace=wrap;html=1;align=center;fillColor=#d5e8d4;strokeColor=#82b366;" parent="1" vertex="1">
          <mxGeometry x="610" y="120" width="100" height="40" as="geometry" />
        </mxCell>
        <mxCell id="UCf_hg2KH5S3i3pvSqn3-63" value="CourseID" style="ellipse;whiteSpace=wrap;html=1;align=center;fontStyle=4;fillColor=#f8cecc;strokeColor=#b85450;" parent="1" vertex="1">
          <mxGeometry x="480" y="35.93" width="70" height="30" as="geometry" />
        </mxCell>
        <mxCell id="UCf_hg2KH5S3i3pvSqn3-64" value="" style="endArrow=none;html=1;rounded=0;exitX=0.5;exitY=1;exitDx=0;exitDy=0;" parent="1" source="UCf_hg2KH5S3i3pvSqn3-63" edge="1">
          <mxGeometry relative="1" as="geometry">
            <mxPoint x="530" y="89.06" as="sourcePoint" />
            <mxPoint x="620" y="120" as="targetPoint" />
          </mxGeometry>
        </mxCell>
        <mxCell id="UCf_hg2KH5S3i3pvSqn3-69" value="Description" style="ellipse;whiteSpace=wrap;html=1;align=center;fillColor=#fff2cc;strokeColor=#d6b656;" parent="1" vertex="1">
          <mxGeometry x="690" y="17.18" width="80" height="28.75" as="geometry" />
        </mxCell>
        <mxCell id="UCf_hg2KH5S3i3pvSqn3-70" value="" style="endArrow=none;html=1;rounded=0;exitX=0.363;exitY=1.035;exitDx=0;exitDy=0;entryX=0.69;entryY=-0.031;entryDx=0;entryDy=0;entryPerimeter=0;exitPerimeter=0;" parent="1" source="UCf_hg2KH5S3i3pvSqn3-69" target="UCf_hg2KH5S3i3pvSqn3-60" edge="1">
          <mxGeometry relative="1" as="geometry">
            <mxPoint x="740" y="329.06" as="sourcePoint" />
            <mxPoint x="900" y="329.06" as="targetPoint" />
          </mxGeometry>
        </mxCell>
        <mxCell id="UCf_hg2KH5S3i3pvSqn3-71" value="Name" style="ellipse;whiteSpace=wrap;html=1;align=center;fillColor=#fff2cc;strokeColor=#d6b656;" parent="1" vertex="1">
          <mxGeometry x="550" y="17.18" width="60" height="30" as="geometry" />
        </mxCell>
        <mxCell id="UCf_hg2KH5S3i3pvSqn3-72" value="" style="endArrow=none;html=1;rounded=0;exitX=0.5;exitY=1;exitDx=0;exitDy=0;entryX=0.25;entryY=0;entryDx=0;entryDy=0;" parent="1" source="UCf_hg2KH5S3i3pvSqn3-71" target="UCf_hg2KH5S3i3pvSqn3-60" edge="1">
          <mxGeometry relative="1" as="geometry">
            <mxPoint x="675" y="89.06" as="sourcePoint" />
            <mxPoint x="660" y="119.06" as="targetPoint" />
          </mxGeometry>
        </mxCell>
        <mxCell id="UCf_hg2KH5S3i3pvSqn3-77" value="Fees" style="ellipse;whiteSpace=wrap;html=1;align=center;fillColor=#fff2cc;strokeColor=#d6b656;" parent="1" vertex="1">
          <mxGeometry x="620" y="10.93" width="60" height="25" as="geometry" />
        </mxCell>
        <mxCell id="UCf_hg2KH5S3i3pvSqn3-78" value="" style="endArrow=none;html=1;rounded=0;exitX=0.5;exitY=1;exitDx=0;exitDy=0;entryX=0.5;entryY=0;entryDx=0;entryDy=0;" parent="1" source="UCf_hg2KH5S3i3pvSqn3-77" target="UCf_hg2KH5S3i3pvSqn3-60" edge="1">
          <mxGeometry relative="1" as="geometry">
            <mxPoint x="740" y="239.06" as="sourcePoint" />
            <mxPoint x="640" y="117.81" as="targetPoint" />
          </mxGeometry>
        </mxCell>
        <mxCell id="UCf_hg2KH5S3i3pvSqn3-79" value="Rating" style="ellipse;whiteSpace=wrap;html=1;align=center;fillColor=#fff2cc;strokeColor=#d6b656;" parent="1" vertex="1">
          <mxGeometry x="730" y="59.06" width="80" height="28.75" as="geometry" />
        </mxCell>
        <mxCell id="UCf_hg2KH5S3i3pvSqn3-80" value="" style="endArrow=none;html=1;rounded=0;exitX=1;exitY=0.25;exitDx=0;exitDy=0;" parent="1" source="UCf_hg2KH5S3i3pvSqn3-60" target="UCf_hg2KH5S3i3pvSqn3-79" edge="1">
          <mxGeometry relative="1" as="geometry">
            <mxPoint x="350" y="327.81" as="sourcePoint" />
            <mxPoint x="510" y="327.81" as="targetPoint" />
          </mxGeometry>
        </mxCell>
        <mxCell id="UCf_hg2KH5S3i3pvSqn3-84" value="Duration" style="ellipse;whiteSpace=wrap;html=1;align=center;fillColor=#fff2cc;strokeColor=#d6b656;" parent="1" vertex="1">
          <mxGeometry x="750" y="120" width="80" height="30" as="geometry" />
        </mxCell>
        <mxCell id="UCf_hg2KH5S3i3pvSqn3-85" value="" style="endArrow=none;html=1;rounded=0;entryX=0;entryY=0.5;entryDx=0;entryDy=0;exitX=1;exitY=0.5;exitDx=0;exitDy=0;" parent="1" source="UCf_hg2KH5S3i3pvSqn3-60" target="UCf_hg2KH5S3i3pvSqn3-84" edge="1">
          <mxGeometry relative="1" as="geometry">
            <mxPoint x="410" y="265.93" as="sourcePoint" />
            <mxPoint x="570" y="265.93" as="targetPoint" />
          </mxGeometry>
        </mxCell>
        <mxCell id="UCf_hg2KH5S3i3pvSqn3-87" value="Studies" style="shape=rhombus;perimeter=rhombusPerimeter;whiteSpace=wrap;html=1;align=center;fillColor=#dae8fc;strokeColor=#6c8ebf;" parent="1" vertex="1">
          <mxGeometry x="390" y="110" width="120" height="60" as="geometry" />
        </mxCell>
        <mxCell id="UCf_hg2KH5S3i3pvSqn3-89" value="" style="endArrow=none;html=1;rounded=0;exitX=1;exitY=0.5;exitDx=0;exitDy=0;entryX=0;entryY=0.5;entryDx=0;entryDy=0;" parent="1" source="UCf_hg2KH5S3i3pvSqn3-87" target="UCf_hg2KH5S3i3pvSqn3-60" edge="1">
          <mxGeometry relative="1" as="geometry">
            <mxPoint x="410" y="200" as="sourcePoint" />
            <mxPoint x="570" y="200" as="targetPoint" />
          </mxGeometry>
        </mxCell>
        <mxCell id="UCf_hg2KH5S3i3pvSqn3-90" value="" style="endArrow=none;html=1;rounded=0;exitX=1;exitY=0.5;exitDx=0;exitDy=0;entryX=0;entryY=0.5;entryDx=0;entryDy=0;" parent="1" source="UCf_hg2KH5S3i3pvSqn3-17" target="UCf_hg2KH5S3i3pvSqn3-87" edge="1">
          <mxGeometry relative="1" as="geometry">
            <mxPoint x="380" y="230" as="sourcePoint" />
            <mxPoint x="540" y="230" as="targetPoint" />
          </mxGeometry>
        </mxCell>
        <mxCell id="UCf_hg2KH5S3i3pvSqn3-91" value="Instructor" style="rounded=1;arcSize=10;whiteSpace=wrap;html=1;align=center;fillColor=#d5e8d4;strokeColor=#82b366;" parent="1" vertex="1">
          <mxGeometry x="270" y="462.5" width="100" height="40" as="geometry" />
        </mxCell>
        <mxCell id="UCf_hg2KH5S3i3pvSqn3-92" value="EmailID" style="ellipse;whiteSpace=wrap;html=1;align=center;fillColor=#fff2cc;strokeColor=#d6b656;" parent="1" vertex="1">
          <mxGeometry x="250" y="597.5" width="50" height="30" as="geometry" />
        </mxCell>
        <mxCell id="UCf_hg2KH5S3i3pvSqn3-93" value="" style="endArrow=none;html=1;rounded=0;exitX=0.5;exitY=0;exitDx=0;exitDy=0;entryX=0.37;entryY=0.988;entryDx=0;entryDy=0;entryPerimeter=0;" parent="1" source="UCf_hg2KH5S3i3pvSqn3-92" target="UCf_hg2KH5S3i3pvSqn3-91" edge="1">
          <mxGeometry relative="1" as="geometry">
            <mxPoint x="320" y="497.5" as="sourcePoint" />
            <mxPoint x="480" y="497.5" as="targetPoint" />
          </mxGeometry>
        </mxCell>
        <mxCell id="UCf_hg2KH5S3i3pvSqn3-94" value="InstructorID" style="ellipse;whiteSpace=wrap;html=1;align=center;fontStyle=4;fillColor=#f8cecc;strokeColor=#b85450;" parent="1" vertex="1">
          <mxGeometry x="180" y="557.5" width="80" height="31.25" as="geometry" />
        </mxCell>
        <mxCell id="UCf_hg2KH5S3i3pvSqn3-95" value="" style="endArrow=none;html=1;rounded=0;entryX=0.25;entryY=1;entryDx=0;entryDy=0;exitX=0.5;exitY=0;exitDx=0;exitDy=0;" parent="1" source="UCf_hg2KH5S3i3pvSqn3-94" target="UCf_hg2KH5S3i3pvSqn3-91" edge="1">
          <mxGeometry relative="1" as="geometry">
            <mxPoint x="200" y="447.5" as="sourcePoint" />
            <mxPoint x="570" y="657.5" as="targetPoint" />
          </mxGeometry>
        </mxCell>
        <mxCell id="UCf_hg2KH5S3i3pvSqn3-96" value="PhoneNo" style="ellipse;whiteSpace=wrap;html=1;align=center;fillColor=#fff2cc;strokeColor=#d6b656;" parent="1" vertex="1">
          <mxGeometry x="290" y="567.5" width="60" height="30" as="geometry" />
        </mxCell>
        <mxCell id="UCf_hg2KH5S3i3pvSqn3-97" value="" style="endArrow=none;html=1;rounded=0;exitX=0.5;exitY=0;exitDx=0;exitDy=0;entryX=0.5;entryY=1;entryDx=0;entryDy=0;" parent="1" source="UCf_hg2KH5S3i3pvSqn3-96" target="UCf_hg2KH5S3i3pvSqn3-91" edge="1">
          <mxGeometry relative="1" as="geometry">
            <mxPoint x="410" y="657.5" as="sourcePoint" />
            <mxPoint x="570" y="657.5" as="targetPoint" />
          </mxGeometry>
        </mxCell>
        <mxCell id="UCf_hg2KH5S3i3pvSqn3-98" value="Age" style="ellipse;whiteSpace=wrap;html=1;align=center;dashed=1;fillColor=#fff2cc;strokeColor=#d6b656;" parent="1" vertex="1">
          <mxGeometry x="160" y="517.5" width="40" height="30" as="geometry" />
        </mxCell>
        <mxCell id="UCf_hg2KH5S3i3pvSqn3-99" value="" style="endArrow=none;html=1;rounded=0;exitX=1;exitY=0.5;exitDx=0;exitDy=0;entryX=0;entryY=0.75;entryDx=0;entryDy=0;" parent="1" source="UCf_hg2KH5S3i3pvSqn3-98" target="UCf_hg2KH5S3i3pvSqn3-91" edge="1">
          <mxGeometry relative="1" as="geometry">
            <mxPoint x="410" y="657.5" as="sourcePoint" />
            <mxPoint x="570" y="657.5" as="targetPoint" />
          </mxGeometry>
        </mxCell>
        <mxCell id="UCf_hg2KH5S3i3pvSqn3-100" value="DOB" style="ellipse;whiteSpace=wrap;html=1;align=center;fillColor=#fff2cc;strokeColor=#d6b656;" parent="1" vertex="1">
          <mxGeometry x="170" y="477.5" width="40" height="30" as="geometry" />
        </mxCell>
        <mxCell id="UCf_hg2KH5S3i3pvSqn3-101" value="" style="endArrow=none;html=1;rounded=0;exitX=1;exitY=0.5;exitDx=0;exitDy=0;entryX=0;entryY=0.5;entryDx=0;entryDy=0;" parent="1" source="UCf_hg2KH5S3i3pvSqn3-100" target="UCf_hg2KH5S3i3pvSqn3-91" edge="1">
          <mxGeometry relative="1" as="geometry">
            <mxPoint x="410" y="687.5" as="sourcePoint" />
            <mxPoint x="570" y="687.5" as="targetPoint" />
          </mxGeometry>
        </mxCell>
        <mxCell id="UCf_hg2KH5S3i3pvSqn3-102" value="Name" style="ellipse;whiteSpace=wrap;html=1;align=center;fillColor=#fff2cc;strokeColor=#d6b656;" parent="1" vertex="1">
          <mxGeometry x="350" y="537.5" width="60" height="30" as="geometry" />
        </mxCell>
        <mxCell id="UCf_hg2KH5S3i3pvSqn3-104" value="FName" style="ellipse;whiteSpace=wrap;html=1;align=center;fillColor=#fff2cc;strokeColor=#d6b656;" parent="1" vertex="1">
          <mxGeometry x="340" y="607.5" width="60" height="20" as="geometry" />
        </mxCell>
        <mxCell id="UCf_hg2KH5S3i3pvSqn3-105" value="" style="endArrow=none;html=1;rounded=0;exitX=0.5;exitY=0;exitDx=0;exitDy=0;entryX=0.5;entryY=1;entryDx=0;entryDy=0;" parent="1" source="UCf_hg2KH5S3i3pvSqn3-104" target="UCf_hg2KH5S3i3pvSqn3-102" edge="1">
          <mxGeometry relative="1" as="geometry">
            <mxPoint x="410" y="597.5" as="sourcePoint" />
            <mxPoint x="570" y="597.5" as="targetPoint" />
          </mxGeometry>
        </mxCell>
        <mxCell id="UCf_hg2KH5S3i3pvSqn3-106" value="LName" style="ellipse;whiteSpace=wrap;html=1;align=center;fillColor=#fff2cc;strokeColor=#d6b656;" parent="1" vertex="1">
          <mxGeometry x="410" y="605" width="60" height="22.5" as="geometry" />
        </mxCell>
        <mxCell id="UCf_hg2KH5S3i3pvSqn3-107" value="" style="endArrow=none;html=1;rounded=0;entryX=1;entryY=1;entryDx=0;entryDy=0;exitX=0.5;exitY=0;exitDx=0;exitDy=0;" parent="1" source="UCf_hg2KH5S3i3pvSqn3-106" target="UCf_hg2KH5S3i3pvSqn3-102" edge="1">
          <mxGeometry relative="1" as="geometry">
            <mxPoint x="380" y="390.5" as="sourcePoint" />
            <mxPoint x="570" y="597.5" as="targetPoint" />
          </mxGeometry>
        </mxCell>
        <mxCell id="UCf_hg2KH5S3i3pvSqn3-110" value="" style="endArrow=none;html=1;rounded=0;exitX=0.5;exitY=0;exitDx=0;exitDy=0;entryX=0;entryY=0.5;entryDx=0;entryDy=0;" parent="1" source="UCf_hg2KH5S3i3pvSqn3-91" target="UCf_hg2KH5S3i3pvSqn3-111" edge="1">
          <mxGeometry relative="1" as="geometry">
            <mxPoint x="380" y="491.25" as="sourcePoint" />
            <mxPoint x="420" y="310" as="targetPoint" />
          </mxGeometry>
        </mxCell>
        <mxCell id="UCf_hg2KH5S3i3pvSqn3-111" value="Teaches" style="shape=rhombus;perimeter=rhombusPerimeter;whiteSpace=wrap;html=1;align=center;rotation=-45;fillColor=#dae8fc;strokeColor=#6c8ebf;" parent="1" vertex="1">
          <mxGeometry x="425" y="270" width="120" height="60" as="geometry" />
        </mxCell>
        <mxCell id="UCf_hg2KH5S3i3pvSqn3-112" value="" style="endArrow=none;html=1;rounded=0;exitX=1;exitY=0.5;exitDx=0;exitDy=0;shape=link;" parent="1" source="UCf_hg2KH5S3i3pvSqn3-111" edge="1">
          <mxGeometry relative="1" as="geometry">
            <mxPoint x="410" y="200" as="sourcePoint" />
            <mxPoint x="660" y="160" as="targetPoint" />
          </mxGeometry>
        </mxCell>
        <mxCell id="UCf_hg2KH5S3i3pvSqn3-113" value="Video" style="shape=ext;margin=3;double=1;whiteSpace=wrap;html=1;align=center;fillColor=#d5e8d4;strokeColor=#82b366;" parent="1" vertex="1">
          <mxGeometry x="500" y="380" width="100" height="40" as="geometry" />
        </mxCell>
        <mxCell id="UCf_hg2KH5S3i3pvSqn3-117" value="Contains" style="shape=rhombus;double=1;perimeter=rhombusPerimeter;whiteSpace=wrap;html=1;align=center;rotation=-60;fillColor=#dae8fc;strokeColor=#6c8ebf;" parent="1" vertex="1">
          <mxGeometry x="545" y="250" width="120" height="60" as="geometry" />
        </mxCell>
        <mxCell id="UCf_hg2KH5S3i3pvSqn3-118" value="" style="endArrow=none;html=1;rounded=0;entryX=0.5;entryY=1;entryDx=0;entryDy=0;exitX=1;exitY=0.5;exitDx=0;exitDy=0;" parent="1" source="UCf_hg2KH5S3i3pvSqn3-117" target="UCf_hg2KH5S3i3pvSqn3-60" edge="1">
          <mxGeometry relative="1" as="geometry">
            <mxPoint x="660" y="330" as="sourcePoint" />
            <mxPoint x="660" y="170" as="targetPoint" />
          </mxGeometry>
        </mxCell>
        <mxCell id="UCf_hg2KH5S3i3pvSqn3-119" value="" style="endArrow=none;html=1;rounded=0;exitX=0;exitY=0.5;exitDx=0;exitDy=0;entryX=0.5;entryY=0;entryDx=0;entryDy=0;shape=link;" parent="1" source="UCf_hg2KH5S3i3pvSqn3-117" target="UCf_hg2KH5S3i3pvSqn3-113" edge="1">
          <mxGeometry relative="1" as="geometry">
            <mxPoint x="410" y="370" as="sourcePoint" />
            <mxPoint x="570" y="370" as="targetPoint" />
          </mxGeometry>
        </mxCell>
        <mxCell id="UCf_hg2KH5S3i3pvSqn3-121" value="Contains" style="shape=rhombus;double=1;perimeter=rhombusPerimeter;whiteSpace=wrap;html=1;align=center;rotation=-105;fillColor=#dae8fc;strokeColor=#6c8ebf;" parent="1" vertex="1">
          <mxGeometry x="640" y="252.5" width="120" height="60" as="geometry" />
        </mxCell>
        <mxCell id="UCf_hg2KH5S3i3pvSqn3-122" value="" style="endArrow=none;html=1;rounded=0;exitX=1;exitY=0.5;exitDx=0;exitDy=0;" parent="1" source="UCf_hg2KH5S3i3pvSqn3-121" edge="1">
          <mxGeometry relative="1" as="geometry">
            <mxPoint x="825" y="340" as="sourcePoint" />
            <mxPoint x="660" y="160" as="targetPoint" />
          </mxGeometry>
        </mxCell>
        <mxCell id="UCf_hg2KH5S3i3pvSqn3-124" value="" style="endArrow=none;html=1;rounded=0;exitX=0;exitY=0.5;exitDx=0;exitDy=0;entryX=0.44;entryY=0;entryDx=0;entryDy=0;entryPerimeter=0;shape=link;" parent="1" source="UCf_hg2KH5S3i3pvSqn3-121" target="UCf_hg2KH5S3i3pvSqn3-132" edge="1">
          <mxGeometry relative="1" as="geometry">
            <mxPoint x="420" y="341.25" as="sourcePoint" />
            <mxPoint x="700" y="461.25" as="targetPoint" />
          </mxGeometry>
        </mxCell>
        <mxCell id="UCf_hg2KH5S3i3pvSqn3-125" value="VideoID" style="ellipse;whiteSpace=wrap;html=1;align=center;fillColor=#fff2cc;strokeColor=#d6b656;" parent="1" vertex="1">
          <mxGeometry x="450" y="447.5" width="65" height="30" as="geometry" />
        </mxCell>
        <mxCell id="UCf_hg2KH5S3i3pvSqn3-126" value="" style="endArrow=none;html=1;rounded=0;exitX=0.677;exitY=0.017;exitDx=0;exitDy=0;entryX=0.25;entryY=1;entryDx=0;entryDy=0;exitPerimeter=0;" parent="1" source="UCf_hg2KH5S3i3pvSqn3-125" target="UCf_hg2KH5S3i3pvSqn3-113" edge="1">
          <mxGeometry relative="1" as="geometry">
            <mxPoint x="420" y="343.75" as="sourcePoint" />
            <mxPoint x="440" y="513.75" as="targetPoint" />
          </mxGeometry>
        </mxCell>
        <mxCell id="UCf_hg2KH5S3i3pvSqn3-127" value="VName" style="ellipse;whiteSpace=wrap;html=1;align=center;fillColor=#fff2cc;strokeColor=#d6b656;" parent="1" vertex="1">
          <mxGeometry x="490" y="484.37" width="70" height="25" as="geometry" />
        </mxCell>
        <mxCell id="UCf_hg2KH5S3i3pvSqn3-128" value="" style="endArrow=none;html=1;rounded=0;exitX=0.42;exitY=0.988;exitDx=0;exitDy=0;entryX=0.5;entryY=0;entryDx=0;entryDy=0;exitPerimeter=0;" parent="1" source="UCf_hg2KH5S3i3pvSqn3-113" target="UCf_hg2KH5S3i3pvSqn3-127" edge="1">
          <mxGeometry relative="1" as="geometry">
            <mxPoint x="420" y="343.75" as="sourcePoint" />
            <mxPoint x="580" y="343.75" as="targetPoint" />
          </mxGeometry>
        </mxCell>
        <mxCell id="UCf_hg2KH5S3i3pvSqn3-129" value="VLink" style="ellipse;whiteSpace=wrap;html=1;align=center;fillColor=#fff2cc;strokeColor=#d6b656;" parent="1" vertex="1">
          <mxGeometry x="545" y="462.5" width="70" height="25" as="geometry" />
        </mxCell>
        <mxCell id="UCf_hg2KH5S3i3pvSqn3-130" value="" style="endArrow=none;html=1;rounded=0;entryX=0.5;entryY=0;entryDx=0;entryDy=0;exitX=0.61;exitY=1;exitDx=0;exitDy=0;exitPerimeter=0;" parent="1" source="UCf_hg2KH5S3i3pvSqn3-113" target="UCf_hg2KH5S3i3pvSqn3-129" edge="1">
          <mxGeometry relative="1" as="geometry">
            <mxPoint x="570" y="432.5" as="sourcePoint" />
            <mxPoint x="670" y="523.75" as="targetPoint" />
          </mxGeometry>
        </mxCell>
        <mxCell id="UCf_hg2KH5S3i3pvSqn3-132" value="Comment" style="shape=ext;margin=3;double=1;whiteSpace=wrap;html=1;align=center;fillColor=#d5e8d4;strokeColor=#82b366;" parent="1" vertex="1">
          <mxGeometry x="680" y="380" width="100" height="40" as="geometry" />
        </mxCell>
        <mxCell id="UCf_hg2KH5S3i3pvSqn3-133" value="CommentID" style="ellipse;whiteSpace=wrap;html=1;align=center;fillColor=#fff2cc;strokeColor=#d6b656;" parent="1" vertex="1">
          <mxGeometry x="640" y="460" width="70" height="35" as="geometry" />
        </mxCell>
        <mxCell id="UCf_hg2KH5S3i3pvSqn3-134" value="" style="endArrow=none;html=1;rounded=0;entryX=0.25;entryY=1;entryDx=0;entryDy=0;exitX=0.629;exitY=0.043;exitDx=0;exitDy=0;exitPerimeter=0;" parent="1" source="UCf_hg2KH5S3i3pvSqn3-133" target="UCf_hg2KH5S3i3pvSqn3-132" edge="1">
          <mxGeometry relative="1" as="geometry">
            <mxPoint x="680" y="470" as="sourcePoint" />
            <mxPoint x="660" y="481.25" as="targetPoint" />
          </mxGeometry>
        </mxCell>
        <mxCell id="UCf_hg2KH5S3i3pvSqn3-135" value="Text" style="ellipse;whiteSpace=wrap;html=1;align=center;fillColor=#fff2cc;strokeColor=#d6b656;" parent="1" vertex="1">
          <mxGeometry x="702.5" y="490" width="55" height="20" as="geometry" />
        </mxCell>
        <mxCell id="UCf_hg2KH5S3i3pvSqn3-136" value="" style="endArrow=none;html=1;rounded=0;entryX=0.5;entryY=0;entryDx=0;entryDy=0;" parent="1" source="UCf_hg2KH5S3i3pvSqn3-132" target="UCf_hg2KH5S3i3pvSqn3-135" edge="1">
          <mxGeometry relative="1" as="geometry">
            <mxPoint x="640" y="311.25" as="sourcePoint" />
            <mxPoint x="800" y="311.25" as="targetPoint" />
          </mxGeometry>
        </mxCell>
        <mxCell id="UCf_hg2KH5S3i3pvSqn3-137" value="ParentID" style="ellipse;whiteSpace=wrap;html=1;align=center;fillColor=#fff2cc;strokeColor=#d6b656;" parent="1" vertex="1">
          <mxGeometry x="750" y="460" width="70" height="25" as="geometry" />
        </mxCell>
        <mxCell id="UCf_hg2KH5S3i3pvSqn3-138" value="" style="endArrow=none;html=1;rounded=0;entryX=0.5;entryY=0;entryDx=0;entryDy=0;exitX=0.69;exitY=1;exitDx=0;exitDy=0;exitPerimeter=0;" parent="1" source="UCf_hg2KH5S3i3pvSqn3-132" target="UCf_hg2KH5S3i3pvSqn3-137" edge="1">
          <mxGeometry relative="1" as="geometry">
            <mxPoint x="730" y="471.25" as="sourcePoint" />
            <mxPoint x="890" y="491.25" as="targetPoint" />
          </mxGeometry>
        </mxCell>
        <mxCell id="8ynuetfjhf_pP3CNEv0g-2" value="" style="endArrow=none;html=1;rounded=0;entryX=0.4;entryY=-0.017;entryDx=0;entryDy=0;entryPerimeter=0;exitX=0.75;exitY=1;exitDx=0;exitDy=0;" parent="1" source="UCf_hg2KH5S3i3pvSqn3-91" target="UCf_hg2KH5S3i3pvSqn3-102" edge="1">
          <mxGeometry relative="1" as="geometry">
            <mxPoint x="210" y="397.5" as="sourcePoint" />
            <mxPoint x="370" y="397.5" as="targetPoint" />
          </mxGeometry>
        </mxCell>
        <mxCell id="8ynuetfjhf_pP3CNEv0g-5" value="Pays" style="shape=rhombus;perimeter=rhombusPerimeter;whiteSpace=wrap;html=1;align=center;rotation=0;fillColor=#dae8fc;strokeColor=#6c8ebf;" parent="1" vertex="1">
          <mxGeometry x="140" y="192.5" width="120" height="60" as="geometry" />
        </mxCell>
        <mxCell id="8ynuetfjhf_pP3CNEv0g-6" value="" style="endArrow=none;html=1;rounded=0;exitX=0.5;exitY=1;exitDx=0;exitDy=0;entryX=0.5;entryY=0;entryDx=0;entryDy=0;" parent="1" source="UCf_hg2KH5S3i3pvSqn3-17" target="8ynuetfjhf_pP3CNEv0g-5" edge="1">
          <mxGeometry relative="1" as="geometry">
            <mxPoint x="370" y="390" as="sourcePoint" />
            <mxPoint x="530" y="390" as="targetPoint" />
          </mxGeometry>
        </mxCell>
        <mxCell id="8ynuetfjhf_pP3CNEv0g-7" value="" style="endArrow=none;html=1;rounded=0;exitX=0.5;exitY=1;exitDx=0;exitDy=0;entryX=0.5;entryY=0;entryDx=0;entryDy=0;shape=link;" parent="1" source="8ynuetfjhf_pP3CNEv0g-5" edge="1">
          <mxGeometry relative="1" as="geometry">
            <mxPoint x="370" y="390" as="sourcePoint" />
            <mxPoint x="200" y="290" as="targetPoint" />
          </mxGeometry>
        </mxCell>
        <mxCell id="8ynuetfjhf_pP3CNEv0g-8" value="PaymentID" style="ellipse;whiteSpace=wrap;html=1;align=center;fontStyle=4;fillColor=#f8cecc;strokeColor=#b85450;" parent="1" vertex="1">
          <mxGeometry x="27.5" y="360" width="75" height="32.5" as="geometry" />
        </mxCell>
        <mxCell id="8ynuetfjhf_pP3CNEv0g-9" value="" style="endArrow=none;html=1;rounded=0;entryX=0.25;entryY=1;entryDx=0;entryDy=0;exitX=1;exitY=0;exitDx=0;exitDy=0;" parent="1" source="8ynuetfjhf_pP3CNEv0g-8" edge="1">
          <mxGeometry relative="1" as="geometry">
            <mxPoint x="80" y="370" as="sourcePoint" />
            <mxPoint x="175" y="330" as="targetPoint" />
          </mxGeometry>
        </mxCell>
        <mxCell id="8ynuetfjhf_pP3CNEv0g-10" value="Type" style="ellipse;whiteSpace=wrap;html=1;align=center;fillColor=#fff2cc;strokeColor=#d6b656;" parent="1" vertex="1">
          <mxGeometry x="110" y="380" width="60" height="30" as="geometry" />
        </mxCell>
        <mxCell id="8ynuetfjhf_pP3CNEv0g-11" value="" style="endArrow=none;html=1;rounded=0;exitX=0.42;exitY=1.013;exitDx=0;exitDy=0;exitPerimeter=0;entryX=0.5;entryY=0;entryDx=0;entryDy=0;" parent="1" target="8ynuetfjhf_pP3CNEv0g-10" edge="1">
          <mxGeometry relative="1" as="geometry">
            <mxPoint x="192" y="330.52" as="sourcePoint" />
            <mxPoint x="360" y="360" as="targetPoint" />
          </mxGeometry>
        </mxCell>
        <mxCell id="8ynuetfjhf_pP3CNEv0g-12" value="Date" style="ellipse;whiteSpace=wrap;html=1;align=center;fillColor=#fff2cc;strokeColor=#d6b656;" parent="1" vertex="1">
          <mxGeometry x="190" y="385" width="60" height="30" as="geometry" />
        </mxCell>
        <mxCell id="8ynuetfjhf_pP3CNEv0g-13" value="" style="endArrow=none;html=1;rounded=0;exitX=0.58;exitY=0.988;exitDx=0;exitDy=0;exitPerimeter=0;entryX=0.5;entryY=0;entryDx=0;entryDy=0;" parent="1" target="8ynuetfjhf_pP3CNEv0g-12" edge="1">
          <mxGeometry relative="1" as="geometry">
            <mxPoint x="208" y="329.52" as="sourcePoint" />
            <mxPoint x="380" y="360" as="targetPoint" />
          </mxGeometry>
        </mxCell>
        <mxCell id="8ynuetfjhf_pP3CNEv0g-14" value="Amount" style="ellipse;whiteSpace=wrap;html=1;align=center;fillColor=#fff2cc;strokeColor=#d6b656;" parent="1" vertex="1">
          <mxGeometry x="270" y="372.5" width="60" height="30" as="geometry" />
        </mxCell>
        <mxCell id="8ynuetfjhf_pP3CNEv0g-15" value="" style="endArrow=none;html=1;rounded=0;exitX=0.75;exitY=1;exitDx=0;exitDy=0;entryX=0.44;entryY=-0.012;entryDx=0;entryDy=0;entryPerimeter=0;" parent="1" target="8ynuetfjhf_pP3CNEv0g-14" edge="1">
          <mxGeometry relative="1" as="geometry">
            <mxPoint x="225" y="330" as="sourcePoint" />
            <mxPoint x="410" y="350" as="targetPoint" />
          </mxGeometry>
        </mxCell>
        <mxCell id="8ynuetfjhf_pP3CNEv0g-17" value="Payment" style="rounded=1;arcSize=10;whiteSpace=wrap;html=1;align=center;fillColor=#d5e8d4;strokeColor=#82b366;" parent="1" vertex="1">
          <mxGeometry x="150" y="290" width="100" height="40" as="geometry" />
        </mxCell>
        <mxCell id="ZN8p0kqyDOAgYQ0xQWgG-1" value="M" style="text;html=1;strokeColor=none;fillColor=none;align=center;verticalAlign=middle;whiteSpace=wrap;rounded=0;" vertex="1" parent="1">
          <mxGeometry x="300" y="108.43" width="60" height="30" as="geometry" />
        </mxCell>
        <mxCell id="ZN8p0kqyDOAgYQ0xQWgG-2" value="N" style="text;html=1;strokeColor=none;fillColor=none;align=center;verticalAlign=middle;whiteSpace=wrap;rounded=0;" vertex="1" parent="1">
          <mxGeometry x="530" y="110" width="60" height="30" as="geometry" />
        </mxCell>
        <mxCell id="ZN8p0kqyDOAgYQ0xQWgG-3" value="1" style="text;html=1;strokeColor=none;fillColor=none;align=center;verticalAlign=middle;whiteSpace=wrap;rounded=0;rotation=-60;" vertex="1" parent="1">
          <mxGeometry x="605" y="188.43" width="60" height="30" as="geometry" />
        </mxCell>
        <mxCell id="ZN8p0kqyDOAgYQ0xQWgG-4" value="N" style="text;html=1;strokeColor=none;fillColor=none;align=center;verticalAlign=middle;whiteSpace=wrap;rounded=0;rotation=-60;" vertex="1" parent="1">
          <mxGeometry x="520" y="340" width="60" height="30" as="geometry" />
        </mxCell>
        <mxCell id="ZN8p0kqyDOAgYQ0xQWgG-6" value="1" style="text;html=1;strokeColor=none;fillColor=none;align=center;verticalAlign=middle;whiteSpace=wrap;rounded=0;rotation=75;" vertex="1" parent="1">
          <mxGeometry x="660" y="180" width="60" height="30" as="geometry" />
        </mxCell>
        <mxCell id="ZN8p0kqyDOAgYQ0xQWgG-7" value="N" style="text;html=1;strokeColor=none;fillColor=none;align=center;verticalAlign=middle;whiteSpace=wrap;rounded=0;rotation=75;" vertex="1" parent="1">
          <mxGeometry x="702.5" y="340" width="60" height="30" as="geometry" />
        </mxCell>
        <mxCell id="ZN8p0kqyDOAgYQ0xQWgG-8" value="M" style="text;html=1;strokeColor=none;fillColor=none;align=center;verticalAlign=middle;whiteSpace=wrap;rounded=0;rotation=-45;" vertex="1" parent="1">
          <mxGeometry x="340" y="392.5" width="60" height="22.5" as="geometry" />
        </mxCell>
        <mxCell id="ZN8p0kqyDOAgYQ0xQWgG-9" value="N" style="text;html=1;strokeColor=none;fillColor=none;align=center;verticalAlign=middle;whiteSpace=wrap;rounded=0;rotation=-30;" vertex="1" parent="1">
          <mxGeometry x="545" y="198.43" width="60" height="20" as="geometry" />
        </mxCell>
        <mxCell id="ZN8p0kqyDOAgYQ0xQWgG-10" value="M" style="text;html=1;strokeColor=none;fillColor=none;align=center;verticalAlign=middle;whiteSpace=wrap;rounded=0;" vertex="1" parent="1">
          <mxGeometry x="180" y="162.5" width="60" height="30" as="geometry" />
        </mxCell>
        <mxCell id="ZN8p0kqyDOAgYQ0xQWgG-11" value="1" style="text;html=1;strokeColor=none;fillColor=none;align=center;verticalAlign=middle;whiteSpace=wrap;rounded=0;" vertex="1" parent="1">
          <mxGeometry x="180" y="252.5" width="60" height="30" as="geometry" />
        </mxCell>
      </root>
    </mxGraphModel>
  </diagram>
</mxfile>
